<svg width="52" height="24" viewBox="0 0 52 24" fill="none" xmlns="http://www.w3.org/2000/svg">
<rect width="52" height="24" fill="#FF6F61"/>
<path d="M21.2539 17H19.8535V13.1328H15.9043V17H14.498V8.43359H15.9043V11.9375H19.8535V8.43359H21.2539V17ZM31.127 12.7051C31.127 13.3652 31.043 13.9668 30.875 14.5098C30.7109 15.0488 30.4629 15.5137 30.1309 15.9043C29.7988 16.291 29.3828 16.5898 28.8828 16.8008C28.3828 17.0117 27.7969 17.1172 27.125 17.1172C26.4414 17.1172 25.8477 17.0117 25.3438 16.8008C24.8438 16.5898 24.4277 16.2891 24.0957 15.8984C23.7676 15.5078 23.5215 15.041 23.3574 14.498C23.1934 13.9551 23.1113 13.3535 23.1113 12.6934C23.1113 11.8105 23.2559 11.041 23.5449 10.3848C23.8379 9.72461 24.2812 9.21289 24.875 8.84961C25.4727 8.48242 26.2266 8.29883 27.1367 8.29883C28.0273 8.29883 28.7676 8.48047 29.3574 8.84375C29.9473 9.20703 30.3887 9.71875 30.6816 10.3789C30.9785 11.0352 31.127 11.8105 31.127 12.7051ZM24.5879 12.7051C24.5879 13.3652 24.6777 13.9375 24.8574 14.4219C25.0371 14.9023 25.3125 15.2734 25.6836 15.5352C26.0586 15.793 26.5391 15.9219 27.125 15.9219C27.7148 15.9219 28.1953 15.793 28.5664 15.5352C28.9375 15.2734 29.2109 14.9023 29.3867 14.4219C29.5625 13.9375 29.6504 13.3652 29.6504 12.7051C29.6504 11.7012 29.4492 10.916 29.0469 10.3496C28.6484 9.7793 28.0117 9.49414 27.1367 9.49414C26.5508 9.49414 26.0684 9.62305 25.6895 9.88086C25.3145 10.1387 25.0371 10.5078 24.8574 10.9883C24.6777 11.4648 24.5879 12.0371 24.5879 12.7051ZM35.9375 17H34.5254V9.62891H32.0176V8.43359H38.4395V9.62891H35.9375V17Z" fill="white"/>
</svg>
