<svg width="52" height="24" viewBox="0 0 52 24" fill="none" xmlns="http://www.w3.org/2000/svg">
<rect width="52" height="24" fill="#1E2832"/>
<path d="M18.0703 14.668C18.0703 15.1758 17.9453 15.6133 17.6953 15.9805C17.4492 16.3477 17.0938 16.6289 16.6289 16.8242C16.168 17.0195 15.6172 17.1172 14.9766 17.1172C14.6641 17.1172 14.3652 17.0996 14.0801 17.0645C13.7949 17.0293 13.5254 16.9785 13.2715 16.9121C13.0215 16.8418 12.793 16.7578 12.5859 16.6602V15.3359C12.9336 15.4883 13.3223 15.627 13.752 15.752C14.1816 15.873 14.6191 15.9336 15.0645 15.9336C15.4277 15.9336 15.7285 15.8867 15.9668 15.793C16.209 15.6953 16.3887 15.5586 16.5059 15.3828C16.623 15.2031 16.6816 14.9941 16.6816 14.7559C16.6816 14.502 16.6133 14.2871 16.4766 14.1113C16.3398 13.9355 16.1328 13.7754 15.8555 13.6309C15.582 13.4824 15.2383 13.3242 14.8242 13.1562C14.543 13.043 14.2734 12.9141 14.0156 12.7695C13.7617 12.625 13.5352 12.4551 13.3359 12.2598C13.1367 12.0645 12.9785 11.834 12.8613 11.5684C12.748 11.2988 12.6914 10.9824 12.6914 10.6191C12.6914 10.1348 12.8066 9.7207 13.0371 9.37695C13.2715 9.0332 13.5996 8.76953 14.0215 8.58594C14.4473 8.40234 14.9434 8.31055 15.5098 8.31055C15.959 8.31055 16.3809 8.35742 16.7754 8.45117C17.1738 8.54492 17.5645 8.67773 17.9473 8.84961L17.502 9.98047C17.1504 9.83594 16.8086 9.7207 16.4766 9.63477C16.1484 9.54883 15.8125 9.50586 15.4688 9.50586C15.1719 9.50586 14.9199 9.55078 14.7129 9.64062C14.5059 9.73047 14.3477 9.85742 14.2383 10.0215C14.1328 10.1816 14.0801 10.373 14.0801 10.5957C14.0801 10.8457 14.1406 11.0566 14.2617 11.2285C14.3867 11.3965 14.5781 11.5508 14.8359 11.6914C15.0977 11.832 15.4336 11.9883 15.8438 12.1602C16.3164 12.3555 16.7168 12.5605 17.0449 12.7754C17.377 12.9902 17.6309 13.248 17.8066 13.5488C17.9824 13.8457 18.0703 14.2188 18.0703 14.668ZM25.0312 17L24.1934 14.6211H20.918L20.0801 17H18.5977L21.7852 8.39844H23.3438L26.5254 17H25.0312ZM23.8301 13.4141L23.0156 11.0703C22.9844 10.9688 22.9395 10.8262 22.8809 10.6426C22.8223 10.4551 22.7637 10.2656 22.7051 10.0742C22.6465 9.87891 22.5977 9.71484 22.5586 9.58203C22.5195 9.74219 22.4707 9.92188 22.4121 10.1211C22.3574 10.3164 22.3027 10.5 22.248 10.6719C22.1973 10.8438 22.1582 10.9766 22.1309 11.0703L21.3105 13.4141H23.8301ZM27.6562 17V8.43359H29.0625V15.8047H32.7012V17H27.6562ZM39.0352 17H34.1836V8.43359H39.0352V9.61719H35.5898V11.9434H38.8184V13.1211H35.5898V15.8105H39.0352V17Z" fill="white"/>
</svg>
